HIERARCHY
ROOT root
{
	OFFSET 0.000000 0.000000 0.000000
	CHANNELS 6 Xposition Yposition Zposition Zrotation Yrotation Xrotation
	JOINT lhip
	{
		OFFSET 0.058581 -0.082280 -0.017664
		CHANNELS 3 Zrotation Yrotation Xrotation
		JOINT lknee
		{
			OFFSET 0.043451 -0.386469 0.008037
			CHANNELS 3 Zrotation Yrotation Xrotation
			JOINT lankle
			{
				OFFSET -0.014790 -0.426874 -0.037428
				CHANNELS 3 Zrotation Yrotation Xrotation
				JOINT ltoe
				{
					OFFSET 0.041054 -0.060286 0.122042
					CHANNELS 3 Zrotation Yrotation Xrotation
					End Site
					{
						OFFSET 0.000000 0.000000 0.000000
					}
				}
			}
		}
	}
	JOINT rhip
	{
		OFFSET -0.060310 -0.090513 -0.013543
		CHANNELS 3 Zrotation Yrotation Xrotation
		JOINT rknee
		{
			OFFSET -0.043257 -0.383688 -0.004843
			CHANNELS 3 Zrotation Yrotation Xrotation
			JOINT rankle
			{
				OFFSET 0.019056 -0.420046 -0.034562
				CHANNELS 3 Zrotation Yrotation Xrotation
				JOINT rtoe
				{
					OFFSET -0.034840 -0.062106 0.130323
					CHANNELS 3 Zrotation Yrotation Xrotation
					End Site
					{
						OFFSET 0.000000 0.000000 0.000000
					}
				}
			}
		}
	}
	JOINT lowerback
	{
		OFFSET 0.004439 0.124404 -0.038385
		CHANNELS 3 Zrotation Yrotation Xrotation
		JOINT upperback
		{
			OFFSET 0.004488 0.137956 0.026820
			CHANNELS 3 Zrotation Yrotation Xrotation
			JOINT chest
			{
				OFFSET -0.002265 0.056032 0.002855
				CHANNELS 3 Zrotation Yrotation Xrotation
				JOINT lowerneck
				{
					OFFSET -0.013390 0.211636 -0.033468
					CHANNELS 3 Zrotation Yrotation Xrotation
					JOINT upperneck
					{
						OFFSET 0.010113 0.088937 0.050410
						CHANNELS 3 Zrotation Yrotation Xrotation
						End Site
						{
							OFFSET 0.000000 0.000000 0.000000
						}
					}
				}
				JOINT lclavicle
				{
					OFFSET 0.071702 0.114000 -0.018898
					CHANNELS 3 Zrotation Yrotation Xrotation
					JOINT lshoulder
					{
						OFFSET 0.122921 0.045205 -0.019046
						CHANNELS 3 Zrotation Yrotation Xrotation
						JOINT lelbow
						{
							OFFSET 0.255332 -0.015649 -0.022946
							CHANNELS 3 Zrotation Yrotation Xrotation
							JOINT lwrist
							{
								OFFSET 0.265709 0.012698 -0.007375
								CHANNELS 3 Zrotation Yrotation Xrotation
								End Site
								{
									OFFSET 0.000000 0.000000 0.000000
								}
							}
						}
					}
				}
				JOINT rclavicle
				{
					OFFSET -0.082954 0.112472 -0.023707
					CHANNELS 3 Zrotation Yrotation Xrotation
					JOINT rshoulder
					{
						OFFSET -0.113228 0.046853 -0.008472
						CHANNELS 3 Zrotation Yrotation Xrotation
						JOINT relbow
						{
							OFFSET -0.260127 -0.014369 -0.031269
							CHANNELS 3 Zrotation Yrotation Xrotation
							JOINT rwrist
							{
								OFFSET -0.269108 0.006794 -0.006027
								CHANNELS 3 Zrotation Yrotation Xrotation
								End Site
								{
									OFFSET 0.000000 0.000000 0.000000
								}
							}
						}
					}
				}
			}
		}
	}
}
MOTION
Frames: 10
Frame Time: 0.033333
-0.106924 0.289985 0.994412 104.228321 1.255852 84.855795 -0.509535 -0.793594 4.526012 -4.258513 -9.234547 13.095675 4.387056 3.382094 -17.106899 0.000000 -0.000000 0.000000 -0.968995 0.185724 -8.506690 -1.045548 -4.109161 24.039668 5.618623 -2.404894 -9.326657 0.000000 -0.000000 0.000000 -1.774726 -1.070352 11.532022 4.746519 -3.107734 -1.661827 0.199392 -3.983598 -0.027795 5.473693 -4.460902 -12.612018 -4.206395 -14.938538 13.671513 -25.937268 0.546306 -2.286275 -52.883702 -18.399839 16.147228 68.272236 -82.476532 -45.066227 2.665858 -14.450254 -9.580080 27.793511 -1.038937 -7.068124 48.766192 8.780201 16.805875 -95.434123 66.390253 -77.821388 8.066818 13.418236 -14.599182 
-0.108766 0.294291 0.993796 104.189696 1.169117 84.495306 -0.864177 -1.028030 5.011670 -4.277414 -8.960227 12.851809 4.520742 3.113781 -17.168145 0.000000 -0.000000 0.000000 -1.424146 0.335532 -8.976595 -1.299177 -4.640705 25.524599 6.185134 -2.110795 -9.416325 0.000000 -0.000000 0.000000 -1.867873 -1.045605 11.445327 4.551388 -2.995090 -1.317294 0.080425 -3.878984 0.031517 5.562182 -4.352274 -12.900139 -4.669482 -15.143819 14.223404 -25.215944 -1.005262 -2.715239 -53.299168 -20.603346 16.375456 99.480146 -81.391602 -75.506853 4.262212 -15.423970 -11.399772 26.881848 0.128763 -7.290163 49.188102 10.415801 17.010567 -106.050417 64.469580 -87.000326 6.906051 13.437732 -15.516472 
-0.110616 0.299017 0.993380 104.169222 1.052520 84.126948 -1.256830 -1.074977 5.357544 -4.391103 -9.085537 12.998166 4.782200 2.989553 -17.297535 0.000000 -0.000000 0.000000 -1.867951 0.339009 -9.583627 -1.554903 -4.922540 27.151779 6.754846 -2.020401 -9.373846 0.000000 -0.000000 0.000000 -1.908120 -1.298983 12.421052 4.338514 -2.882683 -2.316384 -0.106953 -3.728129 0.168097 5.518199 -4.030076 -13.259813 -4.992441 -14.969305 15.170154 -24.333791 -1.468920 -3.918785 -54.214495 -22.914425 17.007743 120.559638 -79.648950 -96.525150 6.290119 -14.996130 -13.440072 26.189505 0.885648 -7.982873 49.655101 12.320028 17.833364 -114.730010 62.216129 -95.156919 5.680354 14.414561 -15.656935 
-0.114086 0.305028 0.992479 104.339340 0.996151 83.785121 -1.812952 -1.492547 5.252229 -4.292487 -8.355373 13.663125 4.975185 2.408801 -17.665851 0.000000 -0.000000 0.000000 -2.577476 0.644693 -10.634306 -1.935572 -5.952889 29.514949 7.288030 -1.226079 -9.112701 0.000000 -0.000000 0.000000 -1.872409 -1.359822 13.118097 4.162104 -2.976020 -2.508969 -0.232875 -3.564458 -0.213572 5.262819 -3.698931 -13.061837 -4.909770 -14.460712 15.893570 -23.497467 -3.605015 -4.388791 -55.091017 -25.512686 17.738286 130.980285 -75.120433 -107.303684 6.957590 -16.476019 -15.668915 24.973288 2.642460 -8.665918 50.132798 13.945303 18.330898 -123.071711 58.096403 -102.949710 7.285336 16.282052 -18.269456 
-0.115296 0.308057 0.991457 104.522776 0.989629 83.380762 -2.035946 -1.524462 5.414566 -4.425820 -8.440375 14.124373 5.171488 2.362933 -17.976278 0.000000 -0.000000 0.000000 -2.952813 0.325050 -11.229083 -2.038454 -6.218638 31.329980 7.526292 -0.952018 -8.925880 0.000000 -0.000000 0.000000 -1.978042 -1.403741 12.896386 4.264309 -3.076425 -2.058662 -0.319524 -3.848669 0.356235 5.261520 -3.161182 -13.494299 -5.247015 -14.355738 16.253731 -23.011977 -4.377335 -5.224202 -55.621478 -27.576502 18.213340 134.791761 -73.244529 -111.389420 9.027939 -16.189219 -16.795189 24.718257 3.293860 -9.342525 50.019036 16.875253 18.610325 -124.042879 57.823259 -103.410758 5.049531 15.666991 -16.693165 
-0.116522 0.312651 0.990238 104.761996 0.963567 82.719800 -2.393020 -1.676511 5.622336 -4.557771 -8.487012 15.047062 5.378545 2.119250 -18.400763 0.000000 -0.000000 0.000000 -3.568299 0.405036 -11.985386 -2.318820 -7.148090 34.018073 8.488387 -0.697426 -8.221457 0.000000 -0.000000 0.000000 -1.922575 -1.515930 13.579786 4.079180 -3.144395 -2.170104 -0.398206 -3.624648 0.067670 5.110019 -3.274050 -12.774862 -5.153139 -13.994514 16.574652 -22.258281 -6.191641 -5.311048 -56.429295 -29.030331 18.638468 137.082624 -70.825652 -113.503892 9.644801 -16.439529 -17.029937 23.601264 5.077714 -9.367689 50.116145 17.694417 18.378412 -126.694059 55.282799 -105.561391 5.140400 15.978667 -16.810773 
-0.117155 0.316528 0.988764 104.769108 0.994789 82.152709 -2.739070 -1.932991 5.850043 -4.724954 -8.590702 15.841856 6.034931 2.366011 -18.821975 0.000000 -0.000000 0.000000 -4.045481 0.781289 -13.239544 -2.432224 -7.393039 37.228321 9.063723 -0.800373 -7.246772 0.000000 -0.000000 0.000000 -2.016359 -1.756908 14.029159 4.072899 -2.966151 -2.182792 -0.421416 -3.449996 0.034551 5.004035 -3.150773 -12.339469 -5.183066 -13.477028 16.758803 -21.793961 -7.594442 -5.624338 -57.103673 -30.227089 18.961352 137.996963 -69.393204 -113.924252 9.594746 -16.752423 -17.775432 23.033147 6.112979 -9.637609 49.962450 19.309110 18.199730 -127.378783 54.258771 -105.373596 4.725075 15.655914 -15.072897 
-0.117555 0.319936 0.987002 104.750703 1.022342 81.690285 -3.196108 -2.210563 5.774543 -4.755594 -8.493441 16.985807 6.686596 2.854860 -19.349500 0.000000 -0.000000 0.000000 -4.462832 1.310338 -14.730734 -2.811772 -7.680248 40.373948 9.547254 -1.389184 -6.468617 0.000000 -0.000000 0.000000 -2.016122 -2.074150 14.424035 4.034402 -2.727926 -2.346097 -0.567412 -3.294532 0.102889 5.032358 -2.818099 -12.684728 -5.628615 -13.234630 17.697454 -21.411351 -8.219322 -6.076503 -57.899300 -31.191935 19.410292 138.444830 -68.823031 -113.966933 9.130456 -16.661204 -17.848994 22.714881 6.752099 -9.895051 50.038326 20.565697 18.381757 -127.901971 53.038145 -104.855000 5.796686 14.590827 -13.618145 
-0.116279 0.322687 0.985440 104.977433 1.284643 80.999788 -3.341021 -2.408321 6.098750 -4.787922 -8.688750 18.209013 6.679502 3.276012 -19.827991 0.000000 -0.000000 0.000000 -4.508625 1.803581 -15.485214 -2.976132 -7.842975 42.848551 9.523720 -2.220690 -7.491922 0.000000 -0.000000 0.000000 -1.905708 -2.320125 14.989588 4.098743 -2.638748 -2.369530 -0.649982 -3.316191 0.303740 5.138754 -2.112577 -13.046248 -5.805464 -12.864920 18.067128 -21.213531 -8.726716 -6.206771 -58.484654 -32.062609 19.639415 138.674369 -68.554835 -113.815978 8.355213 -16.308559 -17.971143 22.495122 7.440680 -10.131315 49.894930 21.521792 18.391253 -127.817339 52.550232 -104.357478 6.116200 14.691104 -13.448973 
-0.113132 0.325430 0.983914 105.235736 1.588379 80.480554 -3.221183 -2.086477 6.360668 -4.878584 -8.996362 19.214531 6.711074 3.385821 -20.527555 0.000000 -0.000000 0.000000 -4.452048 1.961999 -16.034846 -3.635004 -8.159000 43.503703 8.557167 -2.994230 -9.649958 0.000000 -0.000000 0.000000 -1.684365 -2.468159 15.318616 4.045571 -2.405744 -2.540893 -0.643294 -3.291269 0.492644 5.049483 -1.933101 -13.746051 -5.985933 -12.745495 19.020658 -20.976443 -8.897240 -6.408932 -59.491222 -32.392749 20.215757 139.105825 -68.917381 -114.385683 8.657487 -16.525292 -18.320063 22.392468 7.815022 -10.597278 49.487204 22.303260 18.373728 -127.989215 52.605566 -105.104674 5.795539 15.538086 -13.687567 
